Coordinates
version=1
nRows=15
nColumns=34
inDegrees=yes

Units are S.I. units (second, meters, Newtons, ...)
If the header above contains a line with 'inDegrees', this indicates whether rotational values are in degrees (yes) or radians (no).

endheader
time	pelvis_tilt	pelvis_list	pelvis_rotation	pelvis_tx	pelvis_ty	pelvis_tz	hip_flexion_r	hip_adduction_r	hip_rotation_r	knee_angle_r	ankle_angle_r	subtalar_angle_r	mtp_angle_r	hip_flexion_l	hip_adduction_l	hip_rotation_l	knee_angle_l	ankle_angle_l	subtalar_angle_l	mtp_angle_l	lumbar_extension	lumbar_bending	lumbar_rotation	arm_flex_r	arm_add_r	arm_rot_r	elbow_flex_r	pro_sup_r	arm_flex_l	arm_add_l	arm_rot_l	elbow_flex_l	pro_sup_l
      0.00000000	     -2.05887517	      4.75217319	    -26.41667119	      0.09554313	      0.99276024	     -0.04557065	     -0.26139203	     -2.36919855	     -3.92676523	      8.16132080	     10.85641479	     -0.51275335	      0.00000000	      1.84110352	     -2.66217803	     -4.85391758	     10.05068083	     10.06324147	     -0.48148543	      0.00000000	     -3.00718775	     -0.94106397	      7.25882626	     58.91237726	   -106.78946678	     27.59917393	     42.30363623	    108.90604449	     -5.81843271	    -82.30513580	    -51.70228946	     37.66751571	    119.74811838
      0.01666670	     -2.13753814	      4.87265464	    -26.36431557	      0.09576187	      0.99266612	     -0.04535832	     -0.47660514	     -2.40610039	     -3.82776658	      7.51361310	     10.74380367	     -0.31736058	      0.00000000	      1.85552688	     -2.57652532	     -4.77230309	      9.83561297	      9.92216884	     -0.42849784	      0.00000000	     -2.69508515	     -1.09374567	      7.11099877	     58.50207749	   -106.36482173	     27.76422266	     41.97171473	    108.84072974	     -6.26698121	    -82.45149476	    -51.80931960	     37.46200038	    119.69181266
      0.03333330	     -1.82534457	      5.09874962	    -25.88631763	      0.09532424	      0.99304687	     -0.04496656	     -0.85531161	     -2.66326084	     -4.02893488	      7.28535323	     10.85367377	     -0.70870372	      0.00000000	      1.66450278	     -2.26854124	     -4.59531311	      9.62442679	      9.56032294	     -0.16892207	      0.00000000	     -2.80999174	     -1.80661136	      6.09031463	     57.70963327	   -104.37063426	     25.45169676	     39.94196180	    108.48162819	     -6.73535348	    -83.52786072	    -52.25837073	     35.20503189	    119.63019559
      0.05000000	     -1.67217408	      4.41696325	    -25.69573867	      0.09575973	      0.99376228	     -0.04481557	     -1.70331373	     -2.04520838	     -4.57382900	      6.65653035	     10.33597361	      0.09893148	      0.00000000	      1.09481305	     -2.90248549	     -4.42843842	      9.45114593	      9.66613790	      0.31518792	      0.00000000	     -2.90140753	     -1.07034435	      5.05692675	     46.84466454	   -101.97422642	     13.57097792	     36.06470895	    108.39719444	     -8.15145526	    -84.38821402	    -51.52920640	     31.74419964	    119.51152963
      0.06666670	     -1.49817522	      4.94679050	    -25.76185424	      0.09540047	      0.99374133	     -0.04376228	     -1.56254723	     -2.59843268	     -4.54034478	      6.79494541	     10.57628076	     -0.03804319	      0.00000000	      0.96666848	     -2.33878967	     -4.46707271	      9.08186634	      9.49487197	      0.46212323	      0.00000000	     -2.68127838	     -2.02138045	      4.86136436	     45.51893621	   -101.26117003	     13.74641581	     34.64232180	    108.56533851	     -7.54194294	    -84.92742379	    -52.28688931	     30.81835496	    119.44141888
      0.08333330	     -1.56030387	      5.00441915	    -25.69426468	      0.09546048	      0.99369246	     -0.04399608	     -1.54647349	     -2.63148714	     -4.56036097	      6.65063667	     10.60107900	     -0.03731800	      0.00000000	      0.97538367	     -2.29841908	     -4.52782808	      8.88885963	      9.53011839	      0.45153529	      0.00000000	     -2.66387943	     -2.00862678	      4.81897847	     45.46337424	   -101.44581512	     13.61584175	     34.37763365	    108.57072412	     -7.50498243	    -84.90741577	    -52.34617099	     30.53273166	    119.44435703
      0.10000000	     -1.32069792	      4.82139355	    -25.99896625	      0.09629860	      0.99399534	     -0.04464853	     -1.87402554	     -2.72604902	     -5.06946162	      6.65744234	     11.00703408	      1.23041233	      0.00000000	      0.37076729	     -2.26674128	     -4.99053910	      8.50384076	      9.66328962	      0.86750813	      0.00000000	     -2.68199935	     -1.54142305	      4.29277512	     27.63219110	   -100.71149136	     -3.41727045	     29.88742680	    110.66589911	     -6.89924686	    -84.68893612	    -52.17352379	     28.12838589	    117.29190789
      0.11666670	     -1.32625569	      4.82615251	    -25.99681610	      0.09639594	      0.99394466	     -0.04455106	     -1.87513494	     -2.72751992	     -5.06952298	      6.65595102	     11.00620913	      1.23069313	      0.00000000	      0.37105891	     -2.26955198	     -4.99079390	      8.50111914	      9.66388995	      0.86715541	      0.00000000	     -2.68630936	     -1.54090171	      4.29386013	     27.63207920	   -100.70974336	     -3.41712129	     29.88647341	    110.66615254	     -6.89921199	    -84.68887101	    -52.17453596	     28.12720830	    117.29221592
      0.13333330	     -1.46238817	      4.84227969	    -25.92781719	      0.09656832	      0.99378444	     -0.04462556	     -1.90482297	     -2.66585991	     -5.08057248	      6.34696115	     10.90874480	      1.30275817	      0.00000000	      0.32473969	     -2.28843242	     -4.96715438	      8.13886069	      9.70134453	      0.91901380	      0.00000000	     -2.55911269	     -1.49157244	      4.25003153	     27.81177950	   -100.71181432	     -3.42869540	     29.38319978	    110.70179166	     -6.84929294	    -84.66181760	    -52.45036924	     27.64682837	    117.32627611
      0.15000000	     -1.47369579	      4.83670625	    -25.93001815	      0.09674694	      0.99373613	     -0.04474567	     -1.90563498	     -2.66475550	     -5.08096456	      6.34551806	     10.90891643	      1.30274407	      0.00000000	      0.32526787	     -2.28385681	     -4.96818929	      8.13653819	      9.70146838	      0.91908694	      0.00000000	     -2.56498250	     -1.49573785	      4.24717820	     27.81019923	   -100.71069431	     -3.42843091	     29.38601295	    110.70215491	     -6.84933649	    -84.66638227	    -52.45053070	     27.64949240	    117.32674059
      0.16666670	     -1.51323944	      4.84160351	    -25.75456269	      0.09703720	      0.99355870	     -0.04440370	     -2.02311738	     -2.59630669	     -5.18543456	      6.15344154	     10.96949464	      1.25291017	      0.00000000	      0.22590024	     -2.30036391	     -5.11209289	      7.86136413	      9.72619571	      0.90226797	      0.00000000	     -2.43278896	     -1.58383027	      4.07317520	     27.65795958	   -100.59815419	     -3.41123340	     29.60336970	    110.75058834	     -6.88055551	    -84.96318460	    -52.48368327	     27.77554734	    117.39368667
      0.18333330	     -1.49851428	      4.83539394	    -25.75746873	      0.09685518	      0.99362317	     -0.04447019	     -2.02493892	     -2.59690936	     -5.18584029	      6.15267714	     10.96897246	      1.25318429	      0.00000000	      0.23028005	     -2.29950209	     -5.11069151	      7.85780885	      9.72561270	      0.90421778	      0.00000000	     -2.42125659	     -1.58176701	      4.07020151	     27.66144836	   -100.60693501	     -3.41339067	     29.59789677	    110.75066905	     -6.87968777	    -84.96702478	    -52.48653401	     27.77133415	    117.39397167
      0.20000000	     -1.51979095	      4.84551990	    -25.73114245	      0.09718353	      0.99345060	     -0.04425739	     -2.05159027	     -2.59600406	     -5.18369120	      6.12001788	     10.96129493	      1.27015444	      0.00000000	      0.20010605	     -2.30444697	     -5.06721719	      7.80401231	      9.72509413	      0.95595045	      0.00000000	     -2.37981341	     -1.58520430	      4.06578737	     27.67541709	   -100.71470926	     -3.44370428	     29.57182257	    110.75656133	     -6.86222974	    -85.12949836	    -52.53107838	     27.75405690	    117.40439473
      0.21666670	     -1.51218646	      4.86996210	    -25.62070882	      0.09649343	      0.99348668	     -0.04381140	     -2.13244872	     -2.54767360	     -5.16480740	      5.94452278	     10.99923304	      1.32756443	      0.00000000	      0.11438613	     -2.32685389	     -4.83475428	      7.53828971	      9.76433115	      1.22396805	      0.00000000	     -2.39336649	     -1.79815074	      3.88983358	     27.32632005	   -100.35194554	     -3.45074707	     29.98659840	    110.81090122	     -6.97007476	    -85.45235319	    -52.40392843	     28.04774450	    117.51079162
      0.23333330	     -1.53883829	      4.88674496	    -25.59882627	      0.09540065	      0.99352341	     -0.04425292	     -2.06169750	     -2.54389162	     -5.16493430	      5.85586544	     11.01042661	      1.33679172	      0.00000000	      0.17830470	     -2.32262670	     -4.82625986	      7.43805070	      9.77619357	      1.24948153	      0.00000000	     -2.53530109	     -1.81828008	      3.85530249	     27.28371824	   -100.36426225	     -3.47100999	     30.05032731	    110.81547028	     -6.98055469	    -85.55802818	    -52.38566626	     28.11050995	    117.52491541
